<?xml version="1.0" encoding="UTF-8" standalone="no"?>
<!-- Created with Inkscape (http://www.inkscape.org/) -->

<svg
   xmlns:dc="http://purl.org/dc/elements/1.1/"
   xmlns:cc="http://creativecommons.org/ns#"
   xmlns:rdf="http://www.w3.org/1999/02/22-rdf-syntax-ns#"
   xmlns:svg="http://www.w3.org/2000/svg"
   xmlns="http://www.w3.org/2000/svg"
   xmlns:sodipodi="http://sodipodi.sourceforge.net/DTD/sodipodi-0.dtd"
   xmlns:inkscape="http://www.inkscape.org/namespaces/inkscape"
   width="744.09448819"
   height="1052.3622047"
   id="svg2"
   version="1.1"
   inkscape:version="0.48.4 r9939"
   sodipodi:docname="DR.svg">
  <defs
     id="defs4" />
  <sodipodi:namedview
     id="base"
     pagecolor="#ffffff"
     bordercolor="#666666"
     borderopacity="1.0"
     inkscape:pageopacity="0.0"
     inkscape:pageshadow="2"
     inkscape:zoom="0.35"
     inkscape:cx="375"
     inkscape:cy="520"
     inkscape:document-units="px"
     inkscape:current-layer="layer1"
     showgrid="false"
     inkscape:window-width="1280"
     inkscape:window-height="962"
     inkscape:window-x="-8"
     inkscape:window-y="-8"
     inkscape:window-maximized="1" />
  <metadata
     id="metadata7">
    <rdf:RDF>
      <cc:Work
         rdf:about="">
        <dc:format>image/svg+xml</dc:format>
        <dc:type
           rdf:resource="http://purl.org/dc/dcmitype/StillImage" />
        <dc:title></dc:title>
      </cc:Work>
    </rdf:RDF>
  </metadata>
  <g
     inkscape:label="Layer 1"
     inkscape:groupmode="layer"
     id="layer1">
    <path
       style="fill:none;stroke:#000000;stroke-width:1px;stroke-linecap:butt;stroke-linejoin:miter;stroke-opacity:1"
       d="m 31.428571,632.36218 c 25.875866,-19.4069 3.599862,-0.0379 14.285715,-14.28571 1.616244,-2.15499 3.809524,-3.80953 5.714285,-5.71429 0.952381,-0.95238 2.254805,-1.65246 2.857143,-2.85714 1.34687,-2.69374 1.738628,-5.77514 2.857143,-8.57143 1.581819,-3.95455 4.681284,-7.29656 5.714286,-11.42857 0.923945,-3.69578 -0.923945,-7.73279 0,-11.42857 2.465993,-9.86397 3.248293,-1.5646 5.714286,-11.42857 0.461972,-1.84789 -0.373555,-3.84652 0,-5.71429 0.590641,-2.95321 2.1267,-5.64966 2.857142,-8.57143 0.230987,-0.92394 -0.301169,-1.95363 0,-2.85714 0.673435,-2.02031 2.439497,-3.62605 2.857143,-5.71429 0.933887,-4.66943 -1.154931,-9.66598 0,-14.28571 0.516501,-2.066 2.340642,-3.64828 2.857143,-5.71429 0.561869,-2.24747 0,-14.17164 0,-17.14285 0,-14.4787 -0.851835,3.40734 2.857143,-11.42857 0.692959,-2.77184 -0.903508,-5.86091 0,-8.57143 0.673435,-2.02031 2.183708,-3.69398 2.857143,-5.71429 0.602338,-1.80701 -0.851836,-4.01061 0,-5.71428 4.204013,-8.40803 2.857143,4.43509 2.857143,-8.57143 0,-6.45496 -0.425918,1.27775 2.857143,-8.57143 0.301169,-0.90351 0.952381,-2.85714 0,-2.85714 -4.33551,0 -2.287971,4.00676 -2.857143,5.71428 -0.673435,2.02031 -2.340642,3.64828 -2.857143,5.71429 -0.461973,1.84789 0.602338,3.90727 0,5.71428 -0.425918,1.27776 -1.904762,1.90476 -2.857143,2.85715 -0.952381,1.90476 -2.340642,3.64828 -2.857143,5.71428 -1.240175,4.9607 1.240176,12.18216 0,17.14286 -0.516501,2.066 -2.340642,3.64828 -2.857143,5.71428 -0.461972,1.84789 0.602339,3.90727 0,5.71429 -4.204013,12.61204 -2.857143,-10.38047 -2.857143,8.57143 0,7.61905 0,15.23809 0,22.85714 0,1.90476 0,3.80952 0,5.71429 0,1.90476 0.461973,3.86639 0,5.71428 -0.516501,2.06601 -2.183707,3.69398 -2.857142,5.71429 -0.857143,2.57143 0.857142,6 0,8.57143 -0.425918,1.27775 -2.254805,1.65246 -2.857143,2.85714 -0.884876,1.76975 0.845377,10.58319 0,11.42857 -0.673435,0.67344 -2.183708,-0.67343 -2.857143,0 -0.673435,0.67344 0.425918,2.00531 0,2.85714 C 59.326565,590.85191 60,582.80453 60,589.50504 c 0,1.87745 0.537332,6.95943 0,8.57143 -0.673435,2.0203 -2.183708,3.69398 -2.857143,5.71428 -0.525073,1.57522 0.610853,10.81772 0,11.42858 -3.809524,3.80952 -2.857143,-4.76191 -2.857143,2.85714 0,0.95238 0.952381,2.85714 0,2.85714 -0.952381,0 0,-1.90476 0,-2.85714 0,-5.71429 0,-11.42857 0,-17.14286 0,-0.95238 0,-1.90476 0,-2.85714 0,-0.95238 -0.425917,-2.00531 0,-2.85714 0.602339,-1.20468 2.254805,-1.65247 2.857143,-2.85715 0.425918,-0.85183 -0.301169,-1.95363 0,-2.85714 0.673435,-2.02031 2.183708,-3.69398 2.857143,-5.71429 0.301169,-0.9035 -0.673435,-2.1837 0,-2.85714 5.91153,-5.91153 -0.231086,9.0336 5.714286,-2.85714 0.425917,-0.85184 0,-1.90476 0,-2.85714 0.952381,-0.95239 2.254804,-1.65247 2.857143,-2.85715 0.425917,-0.85183 -0.425918,-2.0053 0,-2.85714 5.945372,-11.89074 -0.197245,3.05439 5.714285,-2.85714 0.673435,-0.67344 -0.673435,-2.18371 0,-2.85715 1.34687,-1.34687 4.010615,0.85184 5.714286,0 1.204677,-0.60233 1.57939,-2.43122 2.857143,-2.85714 0.187621,-0.0625 14.098093,-0.0625 14.285714,0 1.277753,0.42592 2.254804,1.65247 2.857143,2.85714 0.42592,0.85184 -0.425918,2.00531 0,2.85715 0.60234,1.20467 2.43123,1.57939 2.85714,2.85714 0.60234,1.80702 -0.85183,4.01061 0,5.71429 0.42592,0.85183 2.18371,-0.67344 2.85715,0 0.67343,0.67343 0,1.90476 0,2.85714 0,1.12946 0.61012,13.06547 0,14.28571 -3.15865,6.3173 -1.77327,0.88664 -5.71429,2.85715 -2.409354,1.20467 -3.304931,4.5096 -5.714286,5.71428 -0.851835,0.42592 -1.904762,0 -2.857143,0 -1.904761,0 -3.809523,0 -5.714285,0 -2.025149,0 -16.404141,0.36936 -17.142857,0 -1.204678,-0.60234 -1.652466,-2.2548 -2.857143,-2.85714 -0.851836,-0.42592 -2.183708,0.67343 -2.857143,0 -0.673435,-0.67344 0.425918,-2.00531 0,-2.85714 -0.602339,-1.20468 -2.254804,-1.65247 -2.857143,-2.85715 -0.425918,-0.85183 0,-1.90476 0,-2.85714 0,-0.95238 -0.673435,-2.18371 0,-2.85714 0.673435,-0.67344 2.857143,-0.95238 2.857143,0 0,4.1071 -15.285567,5.24996 5.714286,0 0.923945,-0.23099 1.904761,0 2.857142,0 0.952381,0 2.005308,-0.42592 2.857143,0 11.890744,5.94537 -3.054387,-0.19725 2.857143,5.71428 0.673435,0.67344 2.005308,-0.42592 2.857143,0 6.3173,3.15865 0.886633,1.77327 2.857143,5.71429 0.602338,1.20468 2.254804,1.65246 2.857143,2.85714 0.901242,1.80249 -0.901242,12.48323 0,14.28572 0.602338,1.20467 2.254804,1.65246 2.857143,2.85714 0.425917,0.85183 -0.673435,2.18371 0,2.85714 0.673435,0.67344 2.183707,-0.67343 2.857142,0 0.673435,0.67344 -0.425917,2.00531 0,2.85714 0.602339,1.20468 1.904762,1.90477 2.857143,2.85715 0.952381,0.95238 1.652466,2.2548 2.857143,2.85714 3.058533,1.52927 6.097373,-2.47406 11.428573,2.85714 0.67343,0.67344 -0.67344,2.18371 0,2.85715 0.67343,0.67343 1.90476,0 2.85714,0 6.66667,0 13.33333,0 20,0 2.39429,0 13.07139,0.60716 14.28572,0 1.70367,-0.85184 -0.85184,-4.01062 0,-5.71429 3.71218,-7.42437 4.73409,2.94059 8.57142,-8.57143 0.56203,-1.68607 0,-12.68935 0,-14.28571 0,-1.2019 0.42497,-16.29293 0,-17.14286 -0.60233,-1.20468 -2.2548,-1.65247 -2.85714,-2.85714 -1.97051,-3.94102 3.46016,-2.55564 -2.85714,-5.71429 -0.64037,-0.32018 -10.74963,0 -11.42857,0 -1.49406,0 -10.67731,-0.37563 -11.42857,0 -6.3173,3.15865 -0.88664,1.77327 -2.85715,5.71429 -0.60234,1.20467 -2.2548,1.65246 -2.85714,2.85714 -0.42592,0.85184 0,1.90476 0,2.85714 0,0.95238 0,1.90476 0,2.85715 0,1.97292 -0.43434,10.55989 0,11.42857 0.60234,1.20467 2.2548,1.65246 2.85714,2.85714 0.42592,0.85184 0,1.90476 0,2.85714 0.95238,1.90476 1.67586,3.94236 2.85715,5.71429 0.7471,1.12066 2.2548,1.65246 2.85714,2.85714 0.42592,0.85184 -0.67344,2.18371 0,2.85714 1.50585,1.50585 4.20844,1.3513 5.71428,2.85715 0.67344,0.67343 -0.67343,2.1837 0,2.85714 1.34687,1.34687 4.36742,-1.34687 5.71429,0 0.67344,0.67343 0,1.90476 0,2.85714 1.90476,0.95238 3.69398,2.18371 5.71429,2.85715 1.80701,0.60233 3.80952,0 5.71428,0 4.76191,0 9.52381,0 14.28572,0 1.98725,0 13.25247,0.51661 14.28571,0 2.40935,-1.20468 3.15878,-4.86245 5.71429,-5.71429 1.80701,-0.60234 3.90727,0.60234 5.71428,0 2.55551,-0.85184 3.47296,-4.22007 5.71429,-5.71429 1.77192,-1.18128 3.94236,-1.67586 5.71428,-2.85714 1.12067,-0.74711 1.90476,-1.90476 2.85715,-2.85714 0.95238,-0.95238 2.2548,-1.65247 2.85714,-2.85714 0.42592,-0.85184 -0.67344,-2.18371 0,-2.85715 0.67343,-0.67343 2.18371,0.67344 2.85714,0 0.67344,-0.67343 -0.42592,-2.0053 0,-2.85714 2.00695,-4.01389 3.70734,-1.7004 5.71429,-5.71429 0.85183,-1.70367 -0.60234,-3.90727 0,-5.71428 0.67343,-2.02031 2.1837,-3.69398 2.85714,-5.71429 0.30117,-0.90351 -0.42592,-2.0053 0,-2.85714 0.60234,-1.20468 2.2548,-1.65247 2.85714,-2.85714 0.42592,-0.85184 0,-1.90477 0,-2.85715 0,-2.85714 1.27776,-6.01592 0,-8.57142 -0.42591,-0.85184 -2.1837,0.67343 -2.85714,0 -0.67344,-0.67344 0.67344,-2.18371 0,-2.85715 -0.67344,-0.67343 -1.90476,0 -2.85714,0 0,-0.95238 0.67343,-2.18371 0,-2.85714 -0.67344,-0.67344 -2.00531,0.42592 -2.85715,0 -1.20467,-0.60234 -1.57939,-2.43123 -2.85714,-2.85714 -1.53602,-0.51201 -9.00957,0 -11.42857,0 -3.61557,0 -8.94555,-0.86739 -11.42857,2.85714 -1.05657,1.58486 0.85183,4.01061 0,5.71429 -0.42592,0.85183 -1.90476,0 -2.85714,0 -0.95239,0.95238 -2.43123,1.57939 -2.85715,2.85714 -0.54177,1.62532 0,11.59475 0,14.28571 0,4.76191 0,9.52381 0,14.28572 0,0.95238 0,1.90476 0,2.85714 0,0.95238 -0.42591,2.00531 0,2.85714 0.60234,1.20468 2.43123,1.57939 2.85715,2.85715 0.60233,1.80701 0,3.80952 0,5.71428 0,0.95238 -0.42592,2.00531 0,2.85714 0.61345,1.22691 11.35735,11.3811 11.42857,11.42858 0.79243,0.52828 2.0053,-0.42592 2.85714,0 1.20468,0.60233 1.65247,2.2548 2.85714,2.85714 0.64037,0.32018 10.74963,0 11.42857,0 1.04925,0 11.3136,0.11497 11.42858,0 0.67343,-0.67344 -0.67344,-2.18371 0,-2.85714 0.67343,-0.67344 2.0053,0.42591 2.85714,0 1.20468,-0.60234 1.90476,-1.90477 2.85714,-2.85715 0.95238,-0.95238 2.11004,-1.73648 2.85714,-2.85714 1.18129,-1.77193 1.67586,-3.94236 2.85715,-5.71429 0.74711,-1.12066 2.11003,-1.73648 2.85714,-2.85714 1.18128,-1.77192 1.67586,-3.94236 2.85714,-5.71428 0.74711,-1.12067 2.25481,-1.65247 2.85715,-2.85715 0.42591,-0.85183 -0.42592,-2.0053 0,-2.85714 0.60233,-1.20468 2.2548,-1.65247 2.85714,-2.85714 0.42592,-0.85184 -0.30117,-1.95364 0,-2.85715 0.67343,-2.0203 2.18371,-3.69398 2.85714,-5.71428 0.30117,-0.90351 -0.42592,-2.00531 0,-2.85714 1.17088,-2.34175 4.54341,-3.37254 5.71429,-5.71429 0.42591,-0.85184 -0.67344,-2.18371 0,-2.85714 0.67343,-0.67344 2.1837,0.67343 2.85714,0 1.70752,-1.70752 -3.08823,-5.71429 2.85714,-5.71429 0.95238,0 0.42592,2.00531 0,2.85714 -1.20467,2.40936 -4.50961,3.30494 -5.71428,5.71429 -0.42165,0.8433 0,17.05655 0,20 0,0.95238 -0.85184,2.43122 0,2.85714 1.70367,0.85184 3.80952,0 5.71428,0 5.71429,0 11.42857,0 17.14286,0 2.69096,0 12.66039,0.54178 14.28571,0 1.27776,-0.42592 1.65247,-2.2548 2.85715,-2.85714 0.85183,-0.42592 2.1837,0.67343 2.85714,0 0.67344,-0.67344 -0.67344,-2.18371 0,-2.85714 0.67344,-0.67344 1.95363,0.30117 2.85714,0 2.02031,-0.67344 4.20844,-1.3513 5.71429,-2.85715 0.67343,-0.67343 -0.67344,-2.1837 0,-2.85714 0.67343,-0.67343 2.00531,0.42592 2.85714,0 1.20468,-0.60234 1.90476,-1.90476 2.85714,-2.85714 0.95239,-0.95238 2.25481,-1.65247 2.85715,-2.85714 0.42591,-0.85184 0.95238,-2.85715 0,-2.85715 -4.73798,0 -2.00339,4.00677 -2.85715,5.71429 -1.17087,2.34175 -4.54341,3.37254 -5.71428,5.71428 -0.42592,0.85184 0.42592,2.00531 0,2.85715 -0.32985,0.65969 -5.38444,5.05459 -5.71429,5.71428 -0.42591,0.85184 0,1.90476 0,2.85715 -0.95238,0.95238 -2.2548,1.65246 -2.85714,2.85714 -1.27775,2.5555 1.27775,6.01592 0,8.57143 -0.42592,0.85183 -2.18371,-0.67344 -2.85714,0 -0.67344,0.67343 0,1.90476 0,2.85714 0,0.95238 0,1.90476 0,2.85714 0,0.95238 -0.67344,2.18371 0,2.85715 0.67343,0.67343 2.0053,-0.42592 2.85714,0 1.20468,0.60233 1.65247,2.2548 2.85714,2.85714 0.9105,0.45525 11.73223,0 14.28572,0 1.29255,0 16.38143,0.38071 17.14285,0 2.40936,-1.20468 3.15878,-4.86245 5.71429,-5.71429 1.80702,-0.60234 4.36742,1.34687 5.71429,0 1.34687,-1.34687 -1.58486,-4.65771 0,-5.71428 2.37728,-1.58486 6.01592,1.27775 8.57142,0 1.90477,-0.95238 1.67586,-3.94236 2.85715,-5.71429 0.74711,-1.12066 1.73648,-2.11003 2.85714,-2.85714 1.77192,-1.18128 3.94236,-1.67586 5.71429,-2.85714 1.12066,-0.74711 1.90476,-1.90477 2.85714,-2.85715 0.95238,-0.95238 2.2548,-1.65246 2.85714,-2.85714 0.42592,-0.85184 -0.42592,-2.00531 0,-2.85714 0.60234,-1.20468 2.25481,-1.65247 2.85714,-2.85715 0.42592,-0.85183 -0.42591,-2.0053 0,-2.85714 0.60234,-1.20468 2.11004,-1.73648 2.85715,-2.85714 2.36256,-3.54385 3.35172,-7.88472 5.71428,-11.42857 1.49422,-2.24133 4.50961,-3.30493 5.71429,-5.71429 0.42592,-0.85183 -0.67344,-2.18371 0,-2.85714 1.50585,-1.50585 4.20844,-1.3513 5.71428,-2.85714 0.67344,-0.67344 -0.30117,-1.95364 0,-2.85715 1.50561,-4.51683 4.58468,-8.77073 8.57143,-11.42857 0.79243,-0.52828 2.18371,0.67344 2.85715,0 13.83045,-13.83046 -6.19579,2.15082 2.85714,-11.42857 1.18128,-1.77193 3.94236,-1.67586 5.71428,-2.85714 2.24133,-1.49422 3.80953,-3.80953 5.71429,-5.71429 1.90476,-1.90476 5.71429,-3.02054 5.71429,-5.71428 0,-2.12959 -3.69398,2.1837 -5.71429,2.85714 -0.90351,0.30117 -2.00531,-0.42592 -2.85714,0 -1.20468,0.60234 -1.65247,2.2548 -2.85715,2.85714 -0.85183,0.42592 -2.0053,-0.42592 -2.85714,0 -2.53239,1.2662 -5.97053,6.8375 -8.57143,8.57143 -1.77192,1.18128 -3.94236,1.67586 -5.71428,2.85714 -1.12067,0.74711 -1.90476,1.90476 -2.85715,2.85715 -0.95238,0.95238 -2.2548,1.65246 -2.85714,2.85714 -0.42592,0.85183 0.42592,2.00531 0,2.85714 -0.60234,1.20468 -1.65246,2.25481 -2.85714,2.85714 -0.85184,0.42592 -2.43123,-0.85183 -2.85714,0 -0.85184,1.70367 1.34687,4.36742 0,5.71429 -1.34687,1.34687 -4.36742,-1.34687 -5.71429,0 -1.34687,1.34687 1.05657,4.12943 0,5.71429 -1.18128,1.77192 -4.20844,1.35129 -5.71429,2.85714 -1.50584,1.50584 -1.35129,4.20844 -2.85714,5.71428 -0.67343,0.67344 -2.18371,-0.67343 -2.85714,0 -1.50585,1.50585 -1.67586,3.94236 -2.85714,5.71429 -1.49422,2.24133 -4.50961,3.30493 -5.71429,5.71429 -0.76324,1.52647 0.76324,4.18781 0,5.71428 -1.20468,2.40936 -4.50961,3.30493 -5.71429,5.71429 -0.38071,0.76142 0,15.85031 0,17.14285 0,2.5535 -0.45524,13.37522 0,14.28572 0.60234,1.20468 2.43123,1.57939 2.85715,2.85714 0.60234,1.80702 -0.85184,4.01062 0,5.71429 0.85183,1.70367 4.01061,-0.85184 5.71428,0 11.89075,5.94537 -3.05438,-0.19725 2.85715,5.71428 0.67343,0.67344 1.90476,0 2.85714,0 1.90476,0 3.80952,0 5.71428,0 1.49406,0 10.67731,0.37563 11.42858,0 2.40935,-1.20467 3.47295,-4.22006 5.71428,-5.71428 1.77193,-1.18129 3.94236,-1.67586 5.71429,-2.85715 1.39529,-0.93019 10.49838,-10.03328 11.42857,-11.42857 1.18128,-1.77192 1.90476,-3.80952 2.85714,-5.71428 0.95238,-1.90477 2.18371,-3.69398 2.85714,-5.71429 0.57138,-1.71412 0,-12.00584 0,-14.28571 0,-2.85715 0,-5.71429 0,-8.57143 0,-0.95238 0.67344,-2.18371 0,-2.85714 -0.67343,-0.67344 -2.1837,0.67343 -2.85714,0 -0.67343,-0.67344 0.67344,-2.18371 0,-2.85715 -0.67343,-0.67343 -1.90476,0 -2.85714,0 -1.90476,0 -3.80953,0 -5.71429,0 -2.419,0 -9.89255,-0.512 -11.42857,0 -1.27775,0.42592 -1.57939,2.43123 -2.85714,2.85715 -1.80702,0.60233 -4.01062,-0.85184 -5.71429,0 -0.85183,0.42591 0.42592,2.0053 0,2.85714 -5.94537,11.89074 0.19725,-3.05439 -5.71428,2.85714 -1.34687,1.34687 0.85183,4.01062 0,5.71429 -0.60234,1.20467 -2.25481,1.65246 -2.85715,2.85714 -0.42591,0.85184 0,1.90476 0,2.85714 0,0.95238 0,1.90476 0,2.85715 0,2.85714 -1.27775,6.01592 0,8.57142 0.42592,0.85184 2.00531,-0.42591 2.85715,0 11.89074,5.94538 -3.05439,-0.19724 2.85714,5.71429 1.50585,1.50585 3.94236,1.67586 5.71429,2.85714 1.12066,0.74711 1.65246,2.25481 2.85714,2.85715 0.85183,0.42591 1.90476,0 2.85714,0 2.85714,0 5.71429,0 8.57143,0 3.37488,0 15.44384,0.56634 17.14286,0 2.5555,-0.85184 3.47296,-4.22007 5.71428,-5.71429 1.77193,-1.18128 3.94236,-1.67586 5.71429,-2.85714 1.21104,-0.80736 7.98036,-7.38929 8.57143,-8.57143 0.42591,-0.85184 -0.42592,-2.00531 0,-2.85714 0.60234,-1.20468 1.90476,-1.90477 2.85714,-2.85715 0.95238,-0.95238 1.65247,-2.2548 2.85714,-2.85714 0.85184,-0.42592 2.00531,0.42592 2.85715,0 1.20467,-0.60234 1.65246,-2.2548 2.85714,-2.85714 0.85183,-0.42592 2.00531,0.42591 2.85714,0 1.20468,-0.60234 1.65247,-2.25481 2.85714,-2.85715 0.85184,-0.42591 1.90477,0 2.85715,0 1.90476,0 3.80952,0 5.71428,0 5.71429,0 11.42857,0 17.14286,0 0.95238,0 1.90476,0 2.85714,0 0.95238,0 2.18371,-0.67343 2.85715,0 0.67343,0.67344 -0.67344,2.18371 0,2.85715 0.67343,0.67343 3.80952,0 2.85714,0 -8.57143,0 -17.14286,0 -25.71429,0 -1.12946,0 -13.06547,-0.61012 -14.28571,0 -1.20468,0.60234 -1.65247,2.2548 -2.85714,2.85714 -0.85184,0.42592 -2.00531,-0.42592 -2.85715,0 -1.20467,0.60234 -1.65246,2.2548 -2.85714,2.85714 -0.85184,0.42592 -2.18371,-0.67343 -2.85714,0 -1.34687,1.34687 0.85183,4.01062 0,5.71429 -0.60234,1.20468 -2.25481,1.65246 -2.85715,2.85714 -0.43476,0.86953 0,7.28469 0,8.57143 0,5.63481 -1.62262,15.52023 2.85715,20 0.12949,0.12949 12.93857,0 14.28571,0 5.71429,0 11.42857,0 17.14286,0 2.85714,0 5.79959,0.69296 8.57143,0 13.79698,-3.44925 -0.14161,-1.35777 8.57143,-5.71429 0.85183,-0.42591 2.1837,0.67344 2.85714,0 0.67343,-0.67343 -0.42592,-2.0053 0,-2.85714 0.60234,-1.20468 1.90476,-1.90476 2.85714,-2.85714 0.95238,-0.95238 1.65247,-2.25481 2.85714,-2.85714 0.85184,-0.42592 2.18371,0.67343 2.85715,0 0.67343,-0.67344 -0.67344,-2.18371 0,-2.85715 0.67343,-0.67343 2.1837,0.67344 2.85714,0 0.67344,-0.67343 0,-1.90476 0,-2.85714 0,-1.04925 0.11498,-11.3136 0,-11.42857 -0.67344,-0.67344 -2.18371,0.67343 -2.85714,0 -0.67344,-0.67344 0.67343,-2.18371 0,-2.85714 -0.67344,-0.67344 -1.95364,0.30116 -2.85715,0 -2.0203,-0.67344 -3.69398,-2.18371 -5.71428,-2.85715 -0.36763,-0.12254 -8.33481,-0.11831 -8.57143,0 -1.20468,0.60234 -1.65247,2.25481 -2.85714,2.85715 -0.85184,0.42591 -2.18371,-0.67344 -2.85715,0 -0.67343,0.67343 0,1.90476 0,2.85714 0,3.92034 -1.49993,9.25003 2.85715,11.42857 1.22024,0.61012 13.15625,0 14.28571,0 1.28674,0 7.7019,0.43476 8.57143,0 1.20468,-0.60234 1.65247,-2.2548 2.85714,-2.85714 0.85184,-0.42592 2.18371,0.67343 2.85715,0 0.67343,-0.67344 -0.67344,-2.18371 0,-2.85715 0.67343,-0.67343 2.1837,0.67344 2.85714,0 1.34687,-1.34687 -0.85184,-4.01061 0,-5.71428 1.53567,-3.07134 3.94758,-5.62692 5.71428,-8.57143 1.09567,-1.82611 1.67586,-3.94236 2.85715,-5.71429 0.74711,-1.12066 2.2548,-1.65246 2.85714,-2.85714 0.42592,-0.85183 -0.42592,-2.00531 0,-2.85714 0.60234,-1.20468 2.2548,-1.65247 2.85714,-2.85714 0.42592,-0.85184 -0.42591,-2.00531 0,-2.85715 0.60234,-1.20467 2.25481,-1.65246 2.85715,-2.85714 0.56641,-1.13283 -0.58411,-7.98732 0,-8.57143 0.67343,-0.67343 2.1837,0.67344 2.85714,0 6.23935,-6.23935 0.59391,-4.63888 2.85714,-11.42857 2.97269,-8.91806 1.90476,0.95238 5.71429,-2.85714 0.67343,-0.67344 -0.42592,-2.00531 0,-2.85715 1.20467,-2.40935 4.50961,-3.30493 5.71428,-5.71428 0.42592,-0.85184 -0.42591,-2.00531 0,-2.85714 0.60234,-1.20468 2.25481,-1.65247 2.85715,-2.85715 0.42591,-0.85183 -0.67344,-2.18371 0,-2.85714 1.50584,-1.50585 4.20843,-1.3513 5.71428,-2.85714 0.67344,-0.67344 -2.18371,-0.67344 -2.85714,0 -0.67344,0.67343 0.30117,1.95363 0,2.85714 -0.67344,2.0203 -1.67586,3.94236 -2.85714,5.71429 -1.49422,2.24132 -4.50961,3.30493 -5.71429,5.71428 -0.42592,0.85184 0.42592,2.00531 0,2.85714 -1.89779,3.79559 -3.81649,1.9187 -5.71429,5.71429 -0.42591,0.85184 0,1.90476 0,2.85714 -0.95238,0.95238 -2.2548,1.65247 -2.85714,2.85715 -0.42592,0.85183 0.67344,2.1837 0,2.85714 -0.67343,0.67343 -2.00531,-0.42592 -2.85714,0 -11.89075,5.94537 3.05439,-0.19725 -2.85714,5.71428 -0.67344,0.67344 -2.18371,-0.67343 -2.85715,0 -1.34687,1.34687 0.85184,4.01062 0,5.71429 -5.94537,11.89074 0.19725,-3.05439 -5.71428,2.85714 -0.67344,0.67344 0.67343,2.18371 0,2.85715 -0.67344,0.67343 -2.18371,-0.67344 -2.85715,0 -1.34687,1.34687 0.85184,4.01061 0,5.71428 -1.20467,2.40936 -4.5096,3.30493 -5.71428,5.71429 -0.42592,0.85183 0,1.90476 0,2.85714 -0.95238,0.95238 -2.25481,1.65247 -2.85714,2.85714 -0.42592,0.85184 0,1.90476 0,2.85715 0,0.95238 0,1.90476 0,2.85714 0,4.7619 0,9.52381 0,14.28571 0,1.34714 -0.1295,14.15623 0,14.28572 1.34687,1.34687 4.01061,-0.85184 5.71428,0 2.40936,1.20467 3.15878,4.86245 5.71429,5.71428 0.94084,0.31362 19.05916,0.31362 20,0 1.27775,-0.42592 1.65246,-2.2548 2.85714,-2.85714 0.85184,-0.42592 2.18371,0.67343 2.85714,0 1.50585,-1.50585 1.3513,-4.20844 2.85715,-5.71429 5.91153,-5.91153 -0.23109,9.03361 5.71428,-2.85714 0.56642,-1.13283 -0.5841,-7.98732 0,-8.57143 3.80953,-3.80952 2.85714,4.76191 2.85714,-2.85714"
       id="path3013"
       inkscape:connector-curvature="0" />
    <path
       style="fill:none;stroke:#000000;stroke-width:1px;stroke-linecap:butt;stroke-linejoin:miter;stroke-opacity:1"
       d="m 488.57143,583.79075 c 3.80952,-0.95238 7.55523,-2.21158 11.42857,-2.85714 2.81827,-0.46971 5.71429,0 8.57143,0 6.66667,0 13.33333,0 20,0 0.95238,0 1.90476,0 2.85714,0 0.95238,0 2.00531,0.42592 2.85714,0 1.20468,-0.60234 1.65247,-2.2548 2.85715,-2.85714 2.28571,-1.14286 6.28571,1.14286 8.57143,0 1.20467,-0.60234 1.65246,-2.25481 2.85714,-2.85714 0.73871,-0.36936 15.11771,0 17.14286,0 0.95238,0 2.1837,-0.67344 2.85714,0 0.96349,0.96349 -0.96349,4.75079 0,5.71428 0.67343,0.67344 2.18371,-0.67343 2.85714,0 0,4.20401 -0.67343,2.18371 2.85714,5.71429"
       id="path3015"
       inkscape:connector-curvature="0" />
  </g>
</svg>
