<?xml version="1.0" encoding="UTF-8" standalone="no"?>
<!-- Created with Inkscape (http://www.inkscape.org/) -->

<svg
   xmlns:dc="http://purl.org/dc/elements/1.1/"
   xmlns:cc="http://creativecommons.org/ns#"
   xmlns:rdf="http://www.w3.org/1999/02/22-rdf-syntax-ns#"
   xmlns:svg="http://www.w3.org/2000/svg"
   xmlns="http://www.w3.org/2000/svg"
   xmlns:sodipodi="http://sodipodi.sourceforge.net/DTD/sodipodi-0.dtd"
   xmlns:inkscape="http://www.inkscape.org/namespaces/inkscape"
   width="744.09448819"
   height="1052.3622047"
   id="svg2"
   version="1.1"
   inkscape:version="0.48.4 r9939"
   sodipodi:docname="star.svg">
  <defs
     id="defs4" />
  <sodipodi:namedview
     id="base"
     pagecolor="#ffffff"
     bordercolor="#666666"
     borderopacity="1.0"
     inkscape:pageopacity="0.0"
     inkscape:pageshadow="2"
     inkscape:zoom="0.35"
     inkscape:cx="375"
     inkscape:cy="520"
     inkscape:document-units="px"
     inkscape:current-layer="layer1"
     showgrid="false"
     inkscape:window-width="1280"
     inkscape:window-height="962"
     inkscape:window-x="-8"
     inkscape:window-y="-8"
     inkscape:window-maximized="1" />
  <metadata
     id="metadata7">
    <rdf:RDF>
      <cc:Work
         rdf:about="">
        <dc:format>image/svg+xml</dc:format>
        <dc:type
           rdf:resource="http://purl.org/dc/dcmitype/StillImage" />
        <dc:title></dc:title>
      </cc:Work>
    </rdf:RDF>
  </metadata>
  <g
     inkscape:label="Layer 1"
     inkscape:groupmode="layer"
     id="layer1">
    <path
       sodipodi:type="spiral"
       style="fill:none;stroke:#000000;stroke-width:1px;stroke-linecap:butt;stroke-linejoin:miter;stroke-opacity:1"
       id="path2993"
       sodipodi:cx="348.57144"
       sodipodi:cy="563.79077"
       sodipodi:expansion="1"
       sodipodi:revolution="3"
       sodipodi:radius="309.89136"
       sodipodi:argument="-20.328022"
       sodipodi:t0="0"
       d="m 348.57144,563.79077 c 1.43254,-15.47128 21.56174,-5.70195 25.71429,2.38098 11.25313,21.90422 -9.96622,44.55068 -30.47624,49.04759 -36.68761,8.04391 -68.31626,-23.9222 -72.3809,-58.5715 -5.96503,-50.84923 37.97132,-92.52004 86.66675,-95.7142 64.90336,-4.25732 116.89457,52.0409 119.04752,114.76201 2.70927,78.92812 -66.11715,141.35417 -142.85727,142.38082 -92.94257,1.24342 -165.86244,-80.19655 -165.71413,-170.95253 0.17476,-106.95279 94.2778,-190.40115 199.04779,-189.04744 120.9611,1.56292 214.9602,108.36031 212.38074,227.14305 C 577.06905,720.18806 457.55629,824.75304 324.76168,820.93361 175.78621,816.64878 60.644542,684.40582 65.714322,537.60004 71.342739,374.6178 216.32673,248.89147 377.14315,255.21937" />
  </g>
</svg>
